<?xml version="1.0" encoding="UTF-8" standalone="no"?>
<!-- Created with Inkscape (http://www.inkscape.org/) -->

<svg
   xmlns:dc="http://purl.org/dc/elements/1.1/"
   xmlns:cc="http://creativecommons.org/ns#"
   xmlns:rdf="http://www.w3.org/1999/02/22-rdf-syntax-ns#"
   xmlns:svg="http://www.w3.org/2000/svg"
   xmlns="http://www.w3.org/2000/svg"
   xmlns:sodipodi="http://sodipodi.sourceforge.net/DTD/sodipodi-0.dtd"
   xmlns:inkscape="http://www.inkscape.org/namespaces/inkscape"
   width="1242"
   height="2436"
   viewBox="0 0 328.61249 644.52502"
   version="1.1"
   id="svg8"
   inkscape:export-filename="/home/dario/dev/udacity-react/mobileflashcards/assets/splash.png"
   inkscape:export-xdpi="47"
   inkscape:export-ydpi="47"
   inkscape:version="0.92.2 (5c3e80d, 2017-08-06)"
   sodipodi:docname="udadeck.svg">
  <defs
     id="defs2" />
  <sodipodi:namedview
     id="base"
     pagecolor="#ffffff"
     bordercolor="#666666"
     borderopacity="1.0"
     inkscape:pageopacity="0.0"
     inkscape:pageshadow="2"
     inkscape:zoom="0.25137704"
     inkscape:cx="30.315141"
     inkscape:cy="1218.5669"
     inkscape:document-units="mm"
     inkscape:current-layer="layer1"
     showgrid="false"
     units="px"
     inkscape:window-width="1920"
     inkscape:window-height="1020"
     inkscape:window-x="0"
     inkscape:window-y="0"
     inkscape:window-maximized="1" />
  <metadata
     id="metadata5">
    <rdf:RDF>
      <cc:Work
         rdf:about="">
        <dc:format>image/svg+xml</dc:format>
        <dc:type
           rdf:resource="http://purl.org/dc/dcmitype/StillImage" />
        <dc:title></dc:title>
      </cc:Work>
    </rdf:RDF>
  </metadata>
  <g
     inkscape:label="Layer 1"
     inkscape:groupmode="layer"
     id="layer1"
     transform="translate(0,347.52502)">
    <g
       id="g856"
       transform="translate(-4.0216099,24.941777)">
      <path
         style="fill:#fdfde9;stroke-width:0.79875058"
         d="m 193.21693,112.07207 c -9.22406,-6.26021 -24.76854,-16.818503 -34.54328,-23.462886 l -17.77226,-12.08068 -14.37751,7.782595 c -7.90763,4.280432 -15.5156,8.031365 -16.90661,8.33541 -3.61066,0.789205 -8.49202,-0.762592 -11.239913,-3.573203 C 96.840315,87.501181 87.288758,68.211714 71.044833,33.874999 l -24.969814,-52.78168 0.324395,-5.094529 c 0.479881,-7.536376 1.817827,-8.607011 29.093941,-23.28118 l 23.282914,-12.525884 0.339102,-11.271503 c 0.314176,-10.443 0.495318,-11.538066 2.464369,-14.897998 3.84376,-6.558881 1.5544,-6.298541 53.20327,-6.050129 44.50049,0.21403 45.55929,0.255331 47.76387,1.863144 1.24001,0.904345 3.0633,3.226992 4.05175,5.161439 1.70355,3.333919 1.79719,4.437559 1.79719,21.181748 v 17.664572 l 34.94534,23.810099 c 19.21993,13.0955514 35.96588,24.7495542 37.21321,25.8977741 1.24733,1.148228 2.77494,3.0582803 3.39469,4.2445767 1.52555,2.9201362 1.42298,9.7297562 -0.1937,12.8593412 -2.344,4.537551 -57.08894,95.12268 -59.11014,97.80812 -2.64136,3.50941 -5.79481,4.99135 -10.62116,4.99135 -3.87555,0 -4.7033,-0.4528 -20.80713,-11.38219 z"
         id="path870"
         inkscape:connector-curvature="0" />
      <path
         style="fill:#aaccda;stroke-width:0.79875058"
         d="m 209.5454,122.68654 c -0.90533,-0.36657 -16.52108,-10.82739 -34.70167,-23.246266 -18.18059,-12.418887 -33.43485,-22.575615 -33.89835,-22.570511 -0.46351,0.0048 -7.3469,3.491682 -15.29642,7.747928 -11.78447,6.309523 -15.10341,7.748145 -17.97189,7.790079 -4.43084,0.06478 -6.94275,-0.930808 -9.634214,-3.818459 C 96.875616,87.33699 84.870349,62.948906 71.364487,34.393572 50.354621,-10.027417 46.755489,-18.169989 46.442172,-21.989964 c -0.399754,-4.873807 0.675082,-7.843236 3.924823,-10.843031 1.030195,-0.950958 12.296777,-7.3632 25.036849,-14.249424 12.740072,-6.886224 23.335663,-12.690036 23.545759,-12.89736 0.210095,-0.207323 0.569533,-5.720374 0.79875,-12.251223 0.460137,-13.110107 0.935957,-14.46191 6.399267,-18.180206 l 2.64062,-1.797189 44.81159,0.01314 44.81161,0.01314 3.195,1.787337 c 2.10519,1.177674 3.80803,3.001877 4.99219,5.347986 1.70298,3.373991 1.79719,4.490914 1.79719,21.306182 v 17.745534 l 36.03423,24.590881 c 21.70477,14.8120149 36.87175,25.6889292 38.14034,27.3521356 1.78299,2.3376235 2.10611,3.5684103 2.10611,8.0222274 v 5.260971 l -16.12869,26.751228 c -43.85459,72.737715 -44.52229,73.805935 -47.29041,75.656995 -2.8294,1.89203 -8.39611,2.38975 -11.712,1.04718 z m 9.5151,-7.41947 c 3.82403,-3.9433 59.57778,-97.134447 60.123,-100.494263 0.3739,-2.304068 0.061,-3.306396 -1.67673,-5.371598 -1.76953,-2.1029745 -16.84844,-12.6197481 -68.60152,-47.846085 -4.91481,-3.345325 -8.21789,-3.478985 -11.0446,-0.446919 -1.77517,1.904136 -13.14705,20.382321 -51.91165,84.351298 -9.67052,15.958206 -10.25262,17.945114 -6.44542,22.000554 1.78593,1.902377 66.11083,46.268613 71.68787,49.444623 2.78534,1.58621 5.23764,1.07587 7.86905,-1.63761 z M 122.17584,79.848895 c 7.00421,-3.774568 12.73492,-7.168683 12.73492,-7.542474 0,-0.3738 -0.75339,-1.956532 -1.6742,-3.517195 -2.54152,-4.307566 -2.22066,-9.8142 0.88851,-15.248468 l 2.50044,-4.3703 -13.4377,-0.0016 c -15.23257,-0.0016 -17.09018,-0.511104 -21.3684,-5.863124 L 99.366362,40.237367 98.966987,-6.3061575 98.567611,-52.849678 77.611003,-41.541631 c -11.526135,6.219425 -21.949831,12.049594 -23.163768,12.955929 -4.616937,3.447041 -4.536295,3.665997 22.165717,60.183647 13.387316,28.335677 25.135298,52.328148 26.106628,53.316602 2.99972,3.052617 5.69288,2.351418 19.45626,-5.065652 z M 165.25075,2.2438606 c 13.79072,-22.7344386 25.9658,-42.5271856 27.05572,-43.9838806 1.98738,-2.65616 6.9655,-5.738344 9.26815,-5.738344 1.06595,0 1.22978,-2.103384 1.22871,-15.775324 -10e-4,-17.269598 -0.64487,-20.270305 -4.79127,-22.34213 -2.53082,-1.264571 -84.96197,-1.477219 -88.24858,-0.227655 -4.44627,1.690468 -4.40649,1.100999 -4.40649,65.299247 0,65.082362 -0.27003,61.687137 5.02798,63.219077 1.40809,0.407155 8.68726,0.772695 16.17594,0.812313 l 13.6158,0.07204 z"
         id="path868"
         inkscape:connector-curvature="0" />
      <path
         style="fill:#8ab9d1;stroke-width:0.79875058"
         d="m 208.74128,122.02297 c -1.34759,-0.75038 -17.04825,-11.33873 -34.89035,-23.529663 -17.8421,-12.190931 -32.64948,-22.165329 -32.90529,-22.165329 -0.25583,0 -6.84031,3.493759 -14.6322,7.76392 -13.47481,7.384537 -14.40429,7.765086 -19.02175,7.787818 -7.86738,0.03874 -8.986879,-1.22883 -18.068213,-20.457872 C 84.999754,62.478426 73.723853,38.62695 64.165917,18.41856 51.677398,-7.9859779 46.687324,-19.351847 46.43056,-21.977182 c -0.407134,-4.162817 1.756979,-9.346022 4.800384,-11.497263 0.994336,-0.702848 12.31746,-6.926902 25.162499,-13.83123 l 23.354617,-12.553323 0.0088,-10.813573 c 0.0079,-9.615191 0.208008,-11.208538 1.80603,-14.377511 1.3129,-2.603565 2.75756,-4.048225 5.36112,-5.361126 3.56326,-1.796849 3.57202,-1.797189 46.23487,-1.797189 30.32626,0 43.57537,0.270979 45.79726,0.936674 3.7509,1.123795 7.44411,5.088949 8.59286,9.225563 0.46083,1.659432 0.85382,10.565341 0.87331,19.79091 l 0.0355,16.773763 34.1135,23.163767 c 18.76242,12.7400718 35.51728,24.4217992 37.23302,25.9593941 5.30597,4.7550502 6.57519,10.2819329 3.7603,16.3743869 -1.35776,2.938684 -54.74726,91.787399 -58.651,97.604699 -3.55602,5.29913 -10.94801,7.31128 -16.17233,4.40221 z m 9.93456,-5.55777 c 0.9189,-0.7688 14.97679,-23.484047 31.23976,-50.478334 32.50777,-53.95843 31.89419,-52.670485 27.37246,-57.4558877 -2.73794,-2.8975956 -69.91957,-48.7049263 -73.01268,-49.7831903 -4.83319,-1.684856 -5.25269,-1.105295 -37.1038,51.26044 -31.52252,51.82551 -31.47564,51.733422 -28.7918,56.568531 0.55888,1.006865 17.31647,12.958171 37.23909,26.558457 38.37276,26.195374 39.1371,26.609524 43.05697,23.329984 z M 123.32888,79.535481 c 6.58969,-3.607629 12.11033,-6.683066 12.26808,-6.834302 0.15776,-0.151235 -0.53627,-1.430906 -1.54227,-2.843712 -1.14018,-1.601231 -1.95281,-4.10053 -2.15756,-6.635684 -0.27357,-3.38739 0.0842,-4.847921 2.14134,-8.740872 1.35839,-2.570659 2.4698,-4.817145 2.4698,-4.992191 0,-0.175046 -5.66115,-0.334037 -12.58033,-0.353319 -16.11821,-0.04489 -19.77886,-1.234062 -23.24554,-7.551189 -1.189193,-2.166994 -1.288011,-6.844102 -1.025254,-48.5259832 0.181257,-28.7534018 0.0054,-46.1278468 -0.466817,-46.1278468 -1.745871,0 -43.907564,23.321742 -45.552439,25.197334 -1.121919,1.279283 -1.797189,3.086698 -1.797189,4.810326 0,1.960977 7.075307,17.7449813 24.416702,54.470184 13.429186,28.440026 25.200777,52.552349 26.159087,53.582945 2.95715,3.180234 7.12332,2.093358 20.91239,-5.45569 z M 166.17703,1.2454223 c 14.02134,-23.0639233 26.69215,-43.1380843 28.15734,-44.6092463 1.4652,-1.471163 3.88053,-2.923402 5.36741,-3.227201 l 2.70341,-0.55236 0.21684,-16.335042 c 0.14682,-11.060725 -0.0829,-17.058746 -0.71157,-18.57642 -1.9071,-4.60413 -1.461,-4.562296 -48.65021,-4.562296 h -43.23364 l -2.23754,2.237542 -2.23754,2.237542 -0.56474,40.295928 c -0.31061,22.162759 -0.44424,49.3347078 -0.29696,60.382107 0.25003,18.754233 0.37372,20.20383 1.86529,21.860231 0.87862,0.975729 2.31637,2.072318 3.195,2.436876 0.87863,0.364558 8.19812,0.591714 16.26553,0.504786 l 14.66804,-0.158041 z"
         id="path866"
         inkscape:connector-curvature="0" />
      <path
         style="fill:#60a0c7;stroke-width:0.79875058"
         d="m 210.24153,122.64857 c -0.96177,-0.38743 -16.54382,-10.81358 -34.62678,-23.169213 -18.08296,-12.355634 -33.36987,-22.653494 -33.97091,-22.884133 -0.60104,-0.230639 -7.6111,3.077906 -15.57792,7.352316 -16.25067,8.718929 -19.2184,9.55582 -24.43996,6.891979 -1.767532,-0.901725 -3.749773,-2.468946 -4.404977,-3.482704 -2.368601,-3.664812 -49.502648,-104.16734 -50.372968,-107.408786 -1.139506,-4.244011 0.132253,-8.873333 3.29895,-12.008497 1.243565,-1.231181 12.884386,-7.941169 25.868491,-14.911085 l 23.607465,-12.672573 0.271096,-11.68932 c 0.244043,-10.522653 0.453473,-11.982614 2.098403,-14.627961 1.07266,-1.725022 3.23851,-3.621794 5.24438,-4.592816 3.32454,-1.609382 4.56196,-1.654053 45.69835,-1.649719 28.22773,0.003 43.33079,0.29583 45.43881,0.881082 4.62567,1.284233 8.02796,5.072132 9.11704,10.150347 0.50076,2.33496 0.90482,11.255341 0.90482,19.975687 v 15.756679 L 243.87983,-21.286 c 19.51621,13.2847819 36.4002,25.2429809 37.52,26.5737873 3.09467,3.6777991 4.14594,8.0132497 2.92846,12.0768777 -1.03151,3.442854 -57.98125,98.607765 -61.03956,101.999105 -3.19219,3.53981 -8.86735,4.96861 -13.0472,3.2848 z m 9.12191,-6.58275 c 0.91359,-0.98845 14.8146,-23.654048 30.89113,-50.36799 31.5846,-52.48329 31.33656,-51.973974 27.61599,-56.7039199 -1.34499,-1.7098694 -56.90186,-40.2019951 -69.83081,-48.3817071 -4.85575,-3.072066 -6.92899,-3.135176 -9.94574,-0.302749 -2.36429,2.219821 -58.22962,93.557362 -60.39963,98.750934 -0.97066,2.323102 -1.00163,3.328713 -0.17995,5.843356 0.90881,2.781329 3.04591,4.442243 25.35348,19.70425 49.61029,33.941516 48.54047,33.255016 51.82356,33.255016 2.09773,0 3.51467,-0.54506 4.67197,-1.79719 z M 123.10241,79.78001 c 6.97314,-3.757826 12.55419,-7.060276 12.40231,-7.338784 -4.5666,-8.374573 -4.73577,-12.669055 -0.75399,-19.140269 1.34515,-2.186148 2.23098,-4.189559 1.9685,-4.452028 -0.26247,-0.26247 -6.56329,-0.477222 -14.00182,-0.477222 -15.39053,0 -17.71919,-0.61483 -20.74252,-5.476601 l -1.80978,-2.91028 -0.399373,-46.8760283 -0.399375,-46.8760327 -21.891463,11.810902 c -12.040305,6.495996 -22.733579,12.62141 -23.762831,13.61203 -3.205401,3.085092 -2.5607,6.930019 3.220374,19.2059676 9.001293,19.1139899 39.366739,83.2951334 42.089949,88.9623414 2.834089,5.897942 5.688159,8.075863 9.467159,7.224307 1.06393,-0.239745 7.63972,-3.510485 14.61286,-7.268303 z m 43.359,-78.6546958 c 14.05801,-23.1299812 26.27805,-42.8459982 27.15564,-43.8133692 2.00089,-2.205594 5.39819,-3.991558 7.59283,-3.991558 1.66459,0 1.67747,-0.161611 1.43747,-18.042445 l -0.24216,-18.042446 -2.2411,-1.926319 -2.24111,-1.92632 h -43.82142 c -24.10177,0 -44.40326,0.223276 -45.11441,0.496169 -0.71114,0.272893 -1.90871,1.620785 -2.66126,2.995315 -1.25016,2.283403 -1.38952,7.567219 -1.61441,61.207314 -0.22394,53.413515 -0.12677,58.934455 1.07748,61.217316 0.72798,1.380033 2.09678,2.887371 3.04176,3.349656 1.05564,0.516409 7.57005,0.780867 16.89441,0.685856 l 15.17626,-0.154655 z"
         id="path864"
         inkscape:connector-curvature="0" />
      <path
         style="fill:#428ebe;stroke-width:0.79875058"
         d="m 210.76984,122.37621 c -1.54981,-0.55436 -17.72451,-11.1981 -35.94378,-23.652759 -18.21925,-12.454654 -33.48535,-22.638269 -33.92467,-22.63025 -0.43931,0.008 -7.08891,3.431497 -14.77688,7.607748 -7.68798,4.176244 -15.11623,7.842118 -16.50724,8.146394 -3.53173,0.772535 -8.33733,-0.707046 -10.864761,-3.345112 -2.282261,-2.38217 -51.155678,-105.032703 -52.068682,-109.361662 -0.720189,-3.414737 0.915655,-8.510453 3.53884,-11.023624 1.180656,-1.13114 12.720982,-7.779702 25.645171,-14.774582 l 23.498524,-12.717964 0.459575,-11.424207 c 0.477883,-11.879279 0.956613,-13.729051 4.550893,-17.584177 3.48622,-3.739226 6.61245,-3.961896 51.70082,-3.682455 55.14467,0.341766 50.88547,-1.953808 51.51942,27.767338 l 0.39937,18.723663 34.34628,23.393336 c 18.89045,12.8663332 35.84116,24.7489224 37.66824,26.4057468 4.02125,3.6465361 5.55591,8.2070662 4.31388,12.8195792 -0.68024,2.526249 -58.02319,98.721187 -60.97851,102.293757 -1.14649,1.38594 -6.84105,4.08982 -8.56051,4.06469 -0.65897,-0.01 -2.46615,-0.4711 -4.01598,-1.02546 z m 8.89265,-6.75775 c 2.22626,-2.29851 58.43702,-95.154276 59.84674,-98.862116 1.00778,-2.650654 0.42245,-5.689916 -1.55631,-8.0810954 C 277.15379,7.7095591 260.40533,-4.0620277 240.73414,-17.483833 214.31715,-35.50834 204.36929,-41.88711 202.67659,-41.88711 c -1.502,0 -3.21746,0.894566 -4.97809,2.59594 -3.7003,3.575742 -60.36648,97.216685 -60.8705,100.588587 -0.26807,1.793331 0.10609,3.451681 1.15751,5.130215 1.02458,1.635714 13.61033,10.710742 36.9608,26.650817 19.47395,13.293791 36.13488,24.473361 37.02429,24.843481 2.40133,0.99933 5.34743,0.11706 7.69189,-2.30347 z M 119.268,81.999698 c 5.74799,-3.030931 11.97395,-6.381913 13.83549,-7.446624 l 3.38459,-1.935844 -1.95457,-2.649264 c -1.075,-1.457096 -2.19158,-4.229839 -2.48127,-6.16165 -0.45008,-3.001377 -0.1352,-4.292493 2.16434,-8.87443 1.48008,-2.949131 2.80338,-5.609162 2.94067,-5.911194 0.13728,-0.302023 -6.39734,-0.661461 -14.52138,-0.79875 -16.15238,-0.272957 -16.88601,-0.475473 -20.8239,-5.748561 -1.61371,-2.160852 -1.65125,-3.153922 -1.865171,-49.3338474 -0.120072,-25.9207366 -0.503136,-47.0115916 -0.851253,-46.8685686 -0.348117,0.143023 -10.626173,5.6392 -22.840125,12.213726 -13.933053,7.499884 -22.686448,12.685129 -23.493488,13.916829 -0.707466,1.07973 -1.249803,3.248765 -1.205193,4.820078 0.05603,1.973515 7.543336,18.6642238 24.213599,53.976972 13.27287,28.11602 24.661751,51.94811 25.308631,52.960191 1.23769,1.936435 3.64448,3.216297 6.20778,3.301093 0.8417,0.02788 6.23327,-2.429225 11.98125,-5.460156 z M 166.43625,1.4410124 c 14.04417,-23.1714984 26.72474,-43.2838304 28.17904,-44.6940734 1.45431,-1.410242 3.89184,-2.798136 5.41674,-3.084209 l 2.77253,-0.520131 v -17.3759 c 0,-16.295234 -0.10161,-17.505082 -1.63383,-19.452984 -0.8986,-1.142395 -2.96537,-2.446896 -4.59282,-2.898891 -4.40538,-1.223523 -82.78241,-1.030543 -86.42841,0.212804 -1.90024,0.648013 -3.24554,1.848743 -4.20036,3.748982 -1.30877,2.604663 -1.39061,6.878818 -1.19813,62.571615 l 0.20661,59.775985 2.2411,1.927497 c 2.20533,1.896729 2.49223,1.927433 17.97189,1.923399 l 15.73078,-0.004 25.53486,-42.1299958 z"
         id="path862"
         inkscape:connector-curvature="0" />
      <path
         style="fill:#3285ba;stroke-width:0.79875058"
         d="m 211.19145,122.4902 c -1.31794,-0.47025 -17.62756,-11.22969 -36.24361,-23.909869 L 141.1005,75.525449 125.91804,83.647968 c -12.21392,6.534379 -15.8254,8.121712 -18.47081,8.118397 -3.99757,-0.0048 -7.825927,-1.878198 -9.897756,-4.842888 C 95.393735,83.83871 48.674669,-15.136622 47.341399,-19.443396 c -1.354817,-4.376376 -0.372227,-8.69589 2.741324,-12.050992 1.186544,-1.278598 12.581049,-7.933024 25.321121,-14.787615 12.740072,-6.854591 23.407474,-12.713566 23.705339,-13.019944 0.297864,-0.306378 0.798184,-5.690353 1.111827,-11.964388 0.63804,-12.763585 1.48342,-15.41102 5.85317,-18.330201 l 2.71406,-1.81311 h 44.89316 44.89317 l 2.64062,1.797188 c 5.9133,4.024557 5.95392,4.188749 6.23822,25.217117 l 0.25573,18.913854 35.235,23.962517 c 19.37925,13.1793852 36.34562,25.060968 37.70305,26.403516 3.48734,3.4491089 4.57595,7.456425 3.31109,12.188487 -0.82124,3.072426 -34.04522,59.179367 -56.84533,95.997477 -5.39217,8.70738 -10.10435,11.49527 -15.9215,9.41969 z m 7.00613,-5.23046 c 1.50922,-0.95014 11.25038,-16.37369 30.6117,-48.468629 30.96391,-51.328384 31.47409,-52.220157 31.47409,-55.015113 0,-4.66821 -0.19198,-4.8130474 -61.72569,-46.569146 -14.70883,-9.981249 -17.25421,-10.874002 -20.80427,-7.296773 -1.59295,1.605137 -16.80981,26.313612 -50.21452,81.536109 -12.09459,19.994014 -12.66579,21.633433 -9.03905,25.943563 1.59855,1.899773 66.7556,47.013679 72.69161,50.330749 2.28989,1.27959 4.4694,1.13627 7.00613,-0.46076 z M 123.01489,80.252623 c 7.42136,-3.99182 13.49338,-7.39052 13.49338,-7.552658 0,-0.162138 -0.8986,-1.618948 -1.99688,-3.23736 -2.93644,-4.32708 -2.78041,-10.538428 0.39937,-15.899019 1.30296,-2.196564 2.37514,-4.241102 2.38264,-4.543421 0.007,-0.302311 -6.61086,-0.661749 -14.70745,-0.798751 -16.78073,-0.283931 -17.72525,-0.600892 -21.02302,-7.054781 L 99.765737,37.649455 V -8.1094567 c 0,-25.1674013 -0.203521,-45.7589123 -0.452268,-45.7589123 -1.071619,0 -44.047646,23.518891 -45.66335,24.989545 -2.600677,2.367201 -2.998676,5.934214 -1.181852,10.592187 1.392259,3.569476 28.322011,60.790579 42.869822,91.091023 5.999581,12.496037 7.784861,14.7061 11.879521,14.7061 1.38036,0 7.71292,-2.909417 15.79728,-7.257863 z M 165.78975,2.8429235 c 13.75134,-22.6246105 25.94598,-42.3321955 27.09922,-43.7946325 2.54357,-3.225542 6.45974,-5.720875 8.98468,-5.724918 l 1.8647,-0.003 -0.2672,-17.372826 c -0.2963,-19.26412 -0.6749,-20.777237 -5.63099,-22.504939 -3.21053,-1.119197 -85.10858,-1.193315 -88.03767,-0.07967 -1.12668,0.428362 -2.76621,1.955973 -3.64339,3.39469 -1.55628,2.552518 -1.59496,4.057057 -1.59787,62.144729 -0.003,53.709576 0.12415,59.710397 1.29762,61.385753 2.48832,3.552587 5.18938,4.059586 20.60799,3.868205 l 14.32048,-0.177746 z"
         id="path860"
         inkscape:connector-curvature="0" />
      <path
         style="fill:#277eb7;stroke-width:0.79875058"
         d="m 207.15439,120.15549 c -2.17275,-1.375 -17.84015,-11.97842 -34.81645,-23.563138 -16.97629,-11.584719 -31.06115,-21.063125 -31.29968,-21.063125 -0.23853,0 -6.83679,3.475181 -14.66279,7.722633 -16.65963,9.041761 -20.34533,9.967313 -25.66716,6.445494 C 98.018901,87.917586 96.677952,85.58386 88.832826,69.02981 44.178977,-25.194549 47.447573,-17.916862 47.447573,-23.116471 c 0,-7.726134 0.265522,-7.942813 28.303799,-23.097292 l 24.813118,-13.411303 v -10.684247 c 0,-12.211918 1.02284,-16.017914 5.08304,-18.914069 l 2.50509,-1.786889 43.99001,-0.225252 c 48.957,-0.250685 48.39354,-0.303088 52.58145,4.890195 l 2.47361,3.067441 0.39938,19.067888 0.39937,19.067888 34.74566,23.671094 c 19.1101,13.0191039 35.76619,24.6244708 37.01352,25.7897041 4.5533,4.2536265 5.68947,9.3589769 3.33619,14.9911589 -1.5783,3.777411 -57.69462,96.830044 -59.84051,99.228114 -4.3264,4.83485 -10.09676,5.4147 -16.09691,1.61753 z m 11.94537,-3.29092 c 1.10372,-0.98845 15.18952,-23.664447 31.30179,-50.39109 31.62025,-52.4509 31.85929,-52.935326 28.3288,-57.4090162 -2.06693,-2.6191432 -71.43853,-50.1188278 -74.46985,-50.9905298 -1.44952,-0.416831 -2.98692,-0.187951 -4.77214,0.710445 -2.96638,1.492812 -0.58028,-2.224743 -37.50715,58.436055 -26.84265,44.09517 -27.2332,44.900998 -24.10808,49.741978 0.81333,1.259885 17.09074,12.893296 37.71928,26.957832 39.11316,26.667356 39.26232,26.746026 43.50735,22.944326 z M 122.48851,80.648372 c 7.05189,-3.77416 13.12795,-7.153674 13.50235,-7.510029 0.37439,-0.356354 -0.13427,-1.750246 -1.13036,-3.097531 -1.17855,-1.594066 -1.93723,-3.97082 -2.17228,-6.805171 -0.31116,-3.752203 -0.0163,-4.992391 2.1288,-8.952836 1.3695,-2.528509 2.49,-4.89289 2.49,-5.254189 0,-0.361299 -6.03429,-0.656909 -13.40952,-0.656909 -12.31768,0 -13.69969,-0.146331 -16.97345,-1.797189 -2.58864,-1.305374 -4.0708,-2.780818 -5.41614,-5.391566 l -1.852203,-3.594378 0.257754,-45.7284711 c 0.158479,-28.1160779 -0.03077,-45.7284719 -0.491353,-45.7284719 -1.878937,0 -43.488219,22.980339 -45.885666,25.342139 -2.417218,2.381275 -2.656335,3.007633 -2.302148,6.030395 0.576891,4.923414 47.859616,104.891466 50.991686,107.809757 3.75845,3.501922 5.94074,2.999444 20.26253,-4.66555 z M 141.92095,42.18139 C 142.76119,40.97328 154.34236,22.012938 167.65689,0.04729644 180.9714,-21.918345 192.97537,-41.075046 194.33236,-42.523152 c 1.49297,-1.593212 3.81061,-2.971177 5.86911,-3.489513 l 3.40185,-0.856596 v -16.305218 c 0,-18.165324 -0.54725,-20.847983 -4.68992,-22.990237 -2.1085,-1.090347 -7.95515,-1.251177 -45.48399,-1.251177 -42.7395,0 -43.08081,0.01285 -45.22872,1.702395 -1.19034,0.936318 -2.4547,2.466334 -2.80969,3.400036 -0.35499,0.933702 -0.77745,28.534026 -0.93879,61.334052 l -0.29334,59.636409 1.99687,2.149078 c 1.09828,1.181992 2.71575,2.446422 3.59438,2.809845 0.87863,0.363424 8.13277,0.683555 16.12031,0.7114 l 14.52281,0.05063 z"
         id="path858"
         inkscape:connector-curvature="0" />
    </g>
    <g
       transform="matrix(4.5924104,0,0,4.5924104,75.217264,-123.68751)"
       id="g874"
       style="fill:#000000">
      <path
         style="fill:#000000"
         inkscape:connector-curvature="0"
         id="path872"
         class="st0"
         d="M 13.3,0 0,7.7 V 25.3 C 0,33.4 6.5,40 14.6,40 17.3,40 19.8,39.3 22,38.1 L 32.8,31.9 C 37.1,29.6 40,25.2 40,20 V 1.6 L 37.4,0.1 26,6.2 v 19.2 c 0,0.8 -0.1,1.6 -0.2,2.4 -0.2,0.8 -0.4,1.5 -0.7,2.2 l -0.3,0.6 c -0.4,0 -2.9,-0.9 -4.2,-1.8 C 20,28.4 19.5,28 19,27.5 18.5,27 18.1,26.5 17.7,25.9 17.3,25.3 17,24.7 16.7,24.1 16.4,23.5 16.2,22.8 16.1,22.1 16,21.4 16,20.7 16,20 V 1.6 Z m 6.5,36.2 c -0.7,0.3 -1.7,0.7 -2.5,0.9 -0.8,0.2 -1.5,0.2 -2.3,0.2 -0.8,0 -1.6,-0.1 -2.4,-0.3 C 11.8,36.8 11.1,36.6 10.4,36.3 9.7,36 9,35.6 8.4,35.2 6.6,34.1 5.7,33.1 5,32 4.6,31.4 4.2,30.7 3.9,30 3.6,29.3 3.4,28.5 3.2,27.7 3,26.9 3,26.1 3,25.3 V 9.2 L 13,3.1 V 20 c 0,6.4 4.7,11.8 10.7,13.1 -0.2,0.3 -0.4,0.6 -0.7,0.8 -1.1,1.1 -2,1.8 -3.2,2.3 z m 17,-14 c -0.1,0.7 -0.4,1.4 -0.6,2 -0.3,0.6 -0.6,1.2 -1,1.8 -0.4,0.6 -1.6,2.1 -3.2,3 -1.6,0.9 -3.1,1.2 -4,1.4 0.6,-1.6 1,-3.2 1,-5 V 7.7 L 37,3.1 V 20 c 0,0.8 0,1.5 -0.2,2.2 z" />
    </g>
    <g
       id="_x38_0-mark-white"
       transform="matrix(4.5924104,0,0,4.5924104,72.571429,-127.3917)">
      <path
         d="M 13.3,0 0,7.7 V 25.3 C 0,33.4 6.5,40 14.6,40 17.3,40 19.8,39.3 22,38.1 L 32.8,31.9 C 37.1,29.6 40,25.2 40,20 V 1.6 L 37.4,0.1 26,6.2 v 19.2 c 0,0.8 -0.1,1.6 -0.2,2.4 -0.2,0.8 -0.4,1.5 -0.7,2.2 l -0.3,0.6 c -0.4,0 -2.9,-0.9 -4.2,-1.8 C 20,28.4 19.5,28 19,27.5 18.5,27 18.1,26.5 17.7,25.9 17.3,25.3 17,24.7 16.7,24.1 16.4,23.5 16.2,22.8 16.1,22.1 16,21.4 16,20.7 16,20 V 1.6 Z m 6.5,36.2 c -0.7,0.3 -1.7,0.7 -2.5,0.9 -0.8,0.2 -1.5,0.2 -2.3,0.2 -0.8,0 -1.6,-0.1 -2.4,-0.3 C 11.8,36.8 11.1,36.6 10.4,36.3 9.7,36 9,35.6 8.4,35.2 6.6,34.1 5.7,33.1 5,32 4.6,31.4 4.2,30.7 3.9,30 3.6,29.3 3.4,28.5 3.2,27.7 3,26.9 3,26.1 3,25.3 V 9.2 L 13,3.1 V 20 c 0,6.4 4.7,11.8 10.7,13.1 -0.2,0.3 -0.4,0.6 -0.7,0.8 -1.1,1.1 -2,1.8 -3.2,2.3 z m 17,-14 c -0.1,0.7 -0.4,1.4 -0.6,2 -0.3,0.6 -0.6,1.2 -1,1.8 -0.4,0.6 -1.6,2.1 -3.2,3 -1.6,0.9 -3.1,1.2 -4,1.4 0.6,-1.6 1,-3.2 1,-5 V 7.7 L 37,3.1 V 20 c 0,0.8 0,1.5 -0.2,2.2 z"
         class="st0"
         id="mark_28_"
         inkscape:connector-curvature="0"
         style="fill:#02b3e4" />
    </g>
  </g>
  <style
     id="style826">.st0{fill:#02b3e4}</style>
</svg>
